<svg width="18" height="14" viewBox="0 0 18 14" fill="none" xmlns="http://www.w3.org/2000/svg">
<path fill-rule="evenodd" clip-rule="evenodd" d="M0.885588 9.25285C0.300669 8.36808 -0.0033989 7.38747 -0.000192642 6.3934V6.05771C0.235632 2.77321 3.62942 0.180201 7.87973 0.00104339L8.36873 2.14252e-05C9.66791 -0.00256891 10.9518 0.229758 12.1135 0.67808C14.9451 1.75933 16.7364 3.97253 16.7377 6.39399C16.7407 7.29125 16.4927 8.17874 16.0119 8.9964L17.5734 12.5756C17.8029 13.1018 17.1478 13.6024 16.4591 13.427L11.7745 12.2339C10.7043 12.6013 9.54255 12.7908 8.36644 12.7885C5.19912 12.7875 2.30244 11.4189 0.885588 9.25285ZM11.9948 10.8711L15.3447 11.7243L14.2281 9.16479C14.1538 8.99454 14.1716 8.80867 14.2775 8.64849C14.7392 7.95015 14.9784 7.17837 14.9757 6.39601C14.9748 4.48283 13.5605 2.73557 11.3224 1.88094C10.4051 1.52692 9.39497 1.34413 8.371 1.34617L7.92823 1.34618C4.62314 1.48652 1.94534 3.53247 1.76032 6.09479L1.76165 6.39601C1.75898 7.17837 1.99822 7.95015 2.45989 8.64849C3.58013 10.361 5.86699 11.4416 8.36904 11.4423C9.39497 11.4444 10.4051 11.2616 11.3191 10.9088C11.5288 10.8279 11.772 10.8143 11.9948 10.8711Z" fill="#565656"/>
<mask id="mask0" mask-type="alpha" maskUnits="userSpaceOnUse" x="0" y="0" width="18" height="14">
<path fill-rule="evenodd" clip-rule="evenodd" d="M0.885588 9.25285C0.300669 8.36808 -0.0033989 7.38747 -0.000192642 6.3934V6.05771C0.235632 2.77321 3.62942 0.180201 7.87973 0.00104339L8.36873 2.14252e-05C9.66791 -0.00256891 10.9518 0.229758 12.1135 0.67808C14.9451 1.75933 16.7364 3.97253 16.7377 6.39399C16.7407 7.29125 16.4927 8.17874 16.0119 8.9964L17.5734 12.5756C17.8029 13.1018 17.1478 13.6024 16.4591 13.427L11.7745 12.2339C10.7043 12.6013 9.54255 12.7908 8.36644 12.7885C5.19912 12.7875 2.30244 11.4189 0.885588 9.25285ZM11.9948 10.8711L15.3447 11.7243L14.2281 9.16479C14.1538 8.99454 14.1716 8.80867 14.2775 8.64849C14.7392 7.95015 14.9784 7.17837 14.9757 6.39601C14.9748 4.48283 13.5605 2.73557 11.3224 1.88094C10.4051 1.52692 9.39497 1.34413 8.371 1.34617L7.92823 1.34618C4.62314 1.48652 1.94534 3.53247 1.76032 6.09479L1.76165 6.39601C1.75898 7.17837 1.99822 7.95015 2.45989 8.64849C3.58013 10.361 5.86699 11.4416 8.36904 11.4423C9.39497 11.4444 10.4051 11.2616 11.3191 10.9088C11.5288 10.8279 11.772 10.8143 11.9948 10.8711Z" fill="white"/>
</mask>
<g mask="url(#mask0)">
</g>
</svg>
