<svg width="10" height="12" viewBox="0 0 10 12" fill="none" xmlns="http://www.w3.org/2000/svg">
<path d="M4.39528 9.6121L8.95394 5.05223C8.97443 5.03174 8.98408 5.00402 8.98166 4.97629L8.6743 1.34335C8.66586 1.24933 8.59233 1.1758 8.49832 1.16736L4.86537 0.861203C4.83765 0.858792 4.80872 0.868435 4.78943 0.888926L0.230771 5.44759C0.212826 5.46571 0.202759 5.49018 0.202759 5.51569C0.202759 5.54119 0.212826 5.56567 0.230771 5.58379L4.25907 9.6121C4.29644 9.65067 4.35791 9.65067 4.39528 9.6121ZM5.14983 1.75678L7.85707 1.9858L8.08608 4.69303L4.32658 8.45134L1.39032 5.51629L5.14983 1.75678ZM5.87498 4.00152C5.92871 4.05524 5.9925 4.09786 6.0627 4.12693C6.1329 4.156 6.20814 4.17096 6.28412 4.17096C6.3601 4.17095 6.43534 4.15598 6.50553 4.1269C6.57573 4.09781 6.63951 4.05519 6.69323 4.00146C6.74696 3.94773 6.78957 3.88394 6.81864 3.81374C6.84772 3.74354 6.86268 3.6683 6.86267 3.59232C6.86266 3.51634 6.84769 3.4411 6.81861 3.3709C6.78953 3.30071 6.74691 3.23693 6.69317 3.1832C6.63944 3.12948 6.57566 3.08686 6.50545 3.05779C6.43525 3.02872 6.36001 3.01376 6.28403 3.01377C6.20805 3.01377 6.13281 3.02874 6.06262 3.05783C5.99242 3.08691 5.92864 3.12953 5.87492 3.18326C5.82119 3.23699 5.77858 3.30078 5.74951 3.37098C5.72044 3.44118 5.70547 3.51642 5.70548 3.5924C5.70549 3.66839 5.72046 3.74362 5.74954 3.81382C5.77862 3.88402 5.82125 3.9478 5.87498 4.00152ZM9.29506 6.59268L8.81774 6.11656C8.79961 6.09861 8.77514 6.08855 8.74963 6.08855C8.72413 6.08855 8.69965 6.09861 8.68153 6.11656L4.31814 10.4715L1.45421 7.61482C1.43609 7.59687 1.41161 7.58681 1.38611 7.58681C1.3606 7.58681 1.33613 7.59687 1.318 7.61482L0.840682 8.09093C0.822737 8.10906 0.81267 8.13353 0.81267 8.15904C0.81267 8.18454 0.822737 8.20902 0.840682 8.22714L3.77211 11.1537L4.24943 11.6299C4.2868 11.6672 4.34827 11.6672 4.38564 11.6299L9.29506 6.72888C9.33242 6.69151 9.33242 6.63004 9.29506 6.59268Z" fill="black"/>
</svg>
